<svg width="20" height="20" viewBox="0 0 20 20" fill="none" xmlns="http://www.w3.org/2000/svg">
<path d="M14.9949 0H5.00509C2.24522 0 0 2.24588 0 5.00656V14.1485C0 16.9092 2.24522 19.1551 5.00509 19.1551H14.9949C17.7548 19.1551 20 16.9092 20 14.1485V5.00656C20 2.24588 17.7548 0 14.9949 0ZM1.76564 5.00656C1.76564 3.22004 3.21909 1.76616 5.00509 1.76616H14.9949C16.7809 1.76616 18.2344 3.22004 18.2344 5.00656V14.1485C18.2344 15.935 16.7809 17.3889 14.9949 17.3889H5.00509C3.21909 17.3889 1.76564 15.935 1.76564 14.1485V5.00656Z" fill="white"/>
<path d="M10.0013 14.2333C12.5677 14.2333 14.6569 12.1447 14.6569 9.57638C14.6569 7.00804 12.5689 4.91943 10.0013 4.91943C7.43371 4.91943 5.3457 7.00804 5.3457 9.57638C5.3457 12.1447 7.43371 14.2333 10.0013 14.2333ZM10.0013 6.68672C11.595 6.68672 12.8912 7.98334 12.8912 9.57752C12.8912 11.1717 11.595 12.4683 10.0013 12.4683C8.40758 12.4683 7.11134 11.1717 7.11134 9.57752C7.11134 7.98334 8.40758 6.68672 10.0013 6.68672Z" fill="white"/>
<path d="M15.0864 5.67186C15.7775 5.67186 16.3408 5.10954 16.3408 4.41711C16.3408 3.72468 15.7786 3.16235 15.0864 3.16235C14.3942 3.16235 13.832 3.72468 13.832 4.41711C13.832 5.10954 14.3942 5.67186 15.0864 5.67186Z" fill="white"/>
</svg>
