<svg width="18" height="20" viewBox="0 0 18 20" fill="none" xmlns="http://www.w3.org/2000/svg">
<path d="M17.3229 4.84268V8.28984C16.7206 8.231 15.938 8.09415 15.0723 7.77693C13.9419 7.3625 13.1005 6.79586 12.5494 6.35712V13.3244L12.5353 13.3026C12.5443 13.4408 12.5494 13.5815 12.5494 13.7235C12.5494 17.1834 9.73491 20 6.27469 20C2.81447 20 0 17.1834 0 13.7235C0 10.2635 2.81447 7.44564 6.27469 7.44564C6.61355 7.44564 6.94603 7.4725 7.27082 7.52494V10.9222C6.95881 10.8109 6.62378 10.7508 6.27469 10.7508C4.63665 10.7508 3.30294 12.0837 3.30294 13.7235C3.30294 15.3633 4.63665 16.6961 6.27469 16.6961C7.91274 16.6961 9.24644 15.362 9.24644 13.7235C9.24644 13.6621 9.24517 13.6007 9.24133 13.5393V0H12.6849C12.6977 0.291635 12.7092 0.585833 12.722 0.877468C12.745 1.45178 12.9496 2.00307 13.3064 2.45459C13.7245 2.98542 14.3422 3.60194 15.2091 4.0944C16.0211 4.55359 16.7832 4.75185 17.3229 4.84523V4.84268Z" fill="white"/>
</svg>
