<svg width="25" height="18" viewBox="0 0 25 18" fill="none" xmlns="http://www.w3.org/2000/svg">
<path d="M23.4735 5.28916C23.3343 3.92867 23.0347 2.42472 21.932 1.63435C21.078 1.02144 19.9555 0.998784 18.9075 1.00004C16.6923 1.00004 14.4758 1.00382 12.2606 1.00508C10.1299 1.0076 7.99917 1.00886 5.86847 1.01137C4.9784 1.01137 4.11319 0.942151 3.28652 1.3323C2.5767 1.66707 2.02102 2.3039 1.68662 3.01246C1.22294 3.9979 1.12598 5.11422 1.07004 6.20412C0.966865 8.18884 0.978053 10.1786 1.10112 12.1621C1.19187 13.6094 1.42184 15.209 2.52697 16.1315C3.50655 16.9483 4.88889 16.9886 6.15936 16.9898C10.192 16.9936 14.226 16.9974 18.2599 16.9999C18.777 17.0012 19.3165 16.9911 19.8436 16.9332C20.8804 16.8199 21.8686 16.5191 22.5349 15.7414C23.2075 14.9573 23.3803 13.8661 23.4822 12.8329C23.7308 10.3258 23.7283 7.79492 23.4735 5.28916ZM9.9285 12.5145V5.48549L15.9402 8.99934L9.9285 12.5145Z" stroke="white" stroke-width="2"/>
</svg>
