<svg width="29" height="29" viewBox="0 0 29 29" fill="none" xmlns="http://www.w3.org/2000/svg">
<g filter="url(#filter0_d_1_25)">
<path d="M16.7686 4.63148C17.6571 4.80449 18.4736 5.23817 19.1136 5.87702C19.7537 6.51586 20.1882 7.33081 20.3616 8.21756M16.7686 1C18.6145 1.20467 20.3357 2.02968 21.6498 3.33959C22.9639 4.64949 23.7926 6.36643 24 8.20848M23.0904 15.4533V18.1769C23.0914 18.4297 23.0395 18.68 22.938 18.9117C22.8366 19.1433 22.6877 19.3513 22.501 19.5222C22.3144 19.6932 22.094 19.8233 21.854 19.9043C21.614 19.9853 21.3597 20.0154 21.1074 19.9926C18.3084 19.6891 15.6198 18.7345 13.2575 17.2055C11.0598 15.8116 9.19643 13.9518 7.79988 11.7583C6.26262 9.38981 5.30596 6.69324 5.00738 3.88702C4.98465 3.63597 5.01455 3.38294 5.09516 3.14405C5.17578 2.90515 5.30534 2.68563 5.47562 2.49946C5.64589 2.31328 5.85314 2.16453 6.08417 2.06268C6.3152 1.96083 6.56494 1.90811 6.8175 1.90787H9.54633C9.98777 1.90353 10.4157 2.05956 10.7504 2.34685C11.0851 2.63415 11.3038 3.03313 11.3655 3.46941C11.4807 4.34102 11.6943 5.19683 12.0023 6.02052C12.1247 6.34547 12.1511 6.69862 12.0786 7.03813C12.006 7.37764 11.8375 7.68928 11.5929 7.93612L10.4377 9.08912C11.7326 11.362 13.6181 13.2439 15.8954 14.5363L17.0506 13.3833C17.2979 13.1392 17.6101 12.971 17.9503 12.8986C18.2905 12.8262 18.6443 12.8527 18.9699 12.9748C19.7951 13.2822 20.6526 13.4954 21.5259 13.6103C21.9677 13.6725 22.3713 13.8947 22.6597 14.2345C22.9482 14.5743 23.1015 15.008 23.0904 15.4533Z" stroke="#141414" stroke-width="0.8" stroke-linecap="round" stroke-linejoin="round" shape-rendering="crispEdges"/>
</g>
<defs>
<filter id="filter0_d_1_25" x="0.599976" y="0.600098" width="27.8" height="27.7998" filterUnits="userSpaceOnUse" color-interpolation-filters="sRGB">
<feFlood flood-opacity="0" result="BackgroundImageFix"/>
<feColorMatrix in="SourceAlpha" type="matrix" values="0 0 0 0 0 0 0 0 0 0 0 0 0 0 0 0 0 0 127 0" result="hardAlpha"/>
<feOffset dy="4"/>
<feGaussianBlur stdDeviation="2"/>
<feComposite in2="hardAlpha" operator="out"/>
<feColorMatrix type="matrix" values="0 0 0 0 0 0 0 0 0 0 0 0 0 0 0 0 0 0 0.25 0"/>
<feBlend mode="normal" in2="BackgroundImageFix" result="effect1_dropShadow_1_25"/>
<feBlend mode="normal" in="SourceGraphic" in2="effect1_dropShadow_1_25" result="shape"/>
</filter>
</defs>
</svg>
