<svg width="23" height="23" viewBox="0 0 23 23" fill="none" xmlns="http://www.w3.org/2000/svg">
<path d="M11.5 22C17.299 22 22 17.299 22 11.5C22 5.70101 17.299 1 11.5 1C5.70101 1 1 5.70101 1 11.5C1 17.299 5.70101 22 11.5 22Z" stroke="#232323" stroke-linecap="round" stroke-linejoin="round"/>
<path d="M8.44531 8.34994C8.69217 7.64819 9.17942 7.05645 9.82076 6.67953C10.4621 6.30261 11.2162 6.16482 11.9493 6.29059C12.6825 6.41635 13.3476 6.79754 13.8266 7.36664C14.3057 7.93575 14.5679 8.65604 14.5668 9.39994C14.5668 11.4999 11.4168 12.5499 11.4168 12.5499" stroke="#232323" stroke-linecap="round" stroke-linejoin="round"/>
<path d="M11.5 16.75H11.51" stroke="#232323" stroke-linecap="round" stroke-linejoin="round"/>
</svg>
